<?xml version="1.0" encoding="utf-8"?>
<!-- Generator: Adobe Illustrator 25.4.1, SVG Export Plug-In . SVG Version: 6.00 Build 0)  -->
<svg version="1.1" id="Layer_1" xmlns="http://www.w3.org/2000/svg" xmlns:xlink="http://www.w3.org/1999/xlink" x="0px" y="0px"
	 width="300px" height="300px" viewBox="0 0 300 300" style="enable-background:new 0 0 300 300;" xml:space="preserve">
<style type="text/css">
	.st0{fill:none;stroke:#1f1f1f;stroke-width:12;stroke-miterlimit:10;}
</style>
<g>
	<g>
		<rect x="111.5320053" y="234.9370422" class="st0" width="76.9359894" height="38.0167885"/>
		<path class="st0" d="M224.5214081,125.2547226l0.0274658-1.0836716c0-42.2498474-35.0506744-76.3132935-77.6600342-74.698349
			c-38.1203308,1.444809-69.4383545,32.0434418-71.7101669,70.1234283
			c-0.9849396,16.5095215,3.4017563,31.9369965,11.5669708,44.7206573
			c8.7849655,13.7539673,15.9434128,28.480957,22.0418854,43.618866l0.0000153,0.0000458
			c1.8127747,4.4997406,2.7444763,9.3057556,2.7444763,14.1569214v12.8444366h76.9359665v-12.8444214
			c0-4.851181,0.9317017-9.6572113,2.7444763-14.1569519l0.8444977-2.0962524
			c6.0927887-15.123764,13.7205048-29.545639,22.0449982-43.5653839
			C220.554184,151.407486,224.3285522,138.7666321,224.5214081,125.2547226z"/>
	</g>
	<g>
		<path class="st0" d="M61.4690437,27.0461693l19.6432304,19.6432343L61.4690437,27.0461693z"/>
		<path class="st0" d="M238.5309601,27.0461693l-19.6432343,19.6432343L238.5309601,27.0461693z"/>
		<path class="st0" d="M52.9812279,214.0206299l19.6432304-19.643219L52.9812279,214.0206299z"/>
		<path class="st0" d="M247.0187683,214.0206299l-19.6432343-19.643219L247.0187683,214.0206299z"/>
		<path class="st0" d="M20,115.440712h28.373558H20z"/>
		<path class="st0" d="M280,115.440712h-28.3735504H280z"/>
	</g>
	<polyline class="st0" points="150,234.9370422 150,167.2770233 177.5550842,131.2644348 122.4449081,131.2644348 	"/>
</g>
</svg>
