<?xml version="1.0" encoding="utf-8"?>
<!-- Generator: Adobe Illustrator 25.4.1, SVG Export Plug-In . SVG Version: 6.00 Build 0)  -->
<svg version="1.1" id="Layer_1" xmlns="http://www.w3.org/2000/svg" xmlns:xlink="http://www.w3.org/1999/xlink" x="0px" y="0px"
	 width="300px" height="300px" viewBox="0 0 300 300" style="enable-background:new 0 0 300 300;" xml:space="preserve">
<style type="text/css">
	.st0{fill:none;stroke:#1f1f1f;stroke-width:12;stroke-miterlimit:10;}
</style>
<g>
	<path class="st0" d="M38.8075523,262.9628906c11.6023636,11.6023865,30.4134865,11.6023865,42.0158501,0l112.6715622-112.6715546
		c22.8691559,7.5025635,49.0261383,2.1806183,67.2085571-16.0017853
		c20.3339233-20.333931,24.5910645-50.6416397,12.8018799-75.1692505l-43.9855652,43.985569l-30.8552399-30.8552399
		l43.9855652-43.985569c-24.5274811-11.789196-54.8353271-7.5319061-75.1692505,12.8018875
		c-18.1824036,18.1824036-23.5043488,44.3393898-16.0018005,67.2086792L38.8075523,220.947052
		C27.2051849,232.5495453,27.2051849,251.3605347,38.8075523,262.9628906z"/>
	<g>
		<line class="st0" x1="127.4347687" y1="132.3199615" x2="76.2281494" y2="81.1132126"/>
		<polygon class="st0" points="20,42.8057976 42.7202682,83.5487442 76.2280197,81.1130829 78.6636887,47.6053314 
			37.9206047,24.8850613 		"/>
	</g>
	<path class="st0" d="M148.4427643,195.3436737l74.1840668,74.1840668c11.602356,11.602356,30.4133453,11.602356,42.0157166,0
		c11.602356-11.602356,11.602356-30.4134979,0.0001221-42.0157318l-74.1841888-74.1841888L148.4427643,195.3436737z"/>
</g>
</svg>
