<?xml version="1.0" encoding="utf-8"?>
<!-- Generator: Adobe Illustrator 25.4.1, SVG Export Plug-In . SVG Version: 6.00 Build 0)  -->
<svg version="1.1" id="Layer_1" xmlns="http://www.w3.org/2000/svg" xmlns:xlink="http://www.w3.org/1999/xlink" x="0px" y="0px"
	 width="300px" height="300px" viewBox="0 0 300 300" style="enable-background:new 0 0 300 300;" xml:space="preserve">
<style type="text/css">
	.st0{fill:none;stroke:#1f1f1f;stroke-width:12;stroke-miterlimit:10;}
</style>
<g>
	<path class="st0" d="M252.4000854,42.6576614l0.0003052-0.000061c-56.553833-30.210144-148.246521-30.210144-204.8009033,0
		l0.0001221,0.000061v121.1949997c0,18.6930237,5.8043709,36.9658966,16.8157043,52.0715179
		c0.0834045,0.1144104,0.1671143,0.2288971,0.2511292,0.3434601c14.7175903,20.0690308,30.6101074,31.1404419,45.3151245,41.1956177
		C119.9275513,264.2642212,133.2775269,272.3797607,150.000061,280
		c16.7225342-7.6202393,30.0725098-15.7357788,40.0184937-22.5367432
		c14.7049561-10.0551758,30.5975342-21.1265869,45.3151245-41.1956177c0.0840912-0.1146698,0.1678772-0.2292633,0.251358-0.3437805
		c11.0110626-15.105545,16.8153534-33.3781738,16.8153687-52.0709839l0.0001068-121.1952133H252.4000854z"/>
	<polygon class="st0" points="134.015564,69.6732788 175.5750885,69.6732788 162.7875519,110.6999893 184.1001129,110.6999893 
		127.0889816,197.0159149 139.3437195,133.8226471 115.8998795,133.8226471 	"/>
</g>
</svg>
