<?xml version="1.0" encoding="utf-8"?>
<!-- Generator: Adobe Illustrator 25.4.1, SVG Export Plug-In . SVG Version: 6.00 Build 0)  -->
<svg version="1.1" id="Layer_1" xmlns="http://www.w3.org/2000/svg" xmlns:xlink="http://www.w3.org/1999/xlink" x="0px" y="0px"
	 width="700.0646973px" height="865.7961426px" viewBox="0 0 700.0646973 865.7961426"
	 style="enable-background:new 0 0 700.0646973 865.7961426;" xml:space="preserve">
<g>
	<path d="M0,0c233.3927002,0,466.6398315,0,700.0474854,0c0,30.4774265,0,60.8350906,0,91.195755
		c-1.6444702,0.5245743-63.2960205,0.6687241-66.078125,0.1383972c-0.2821655-1.7842712-0.461792-3.6171875-0.871521-5.3970566
		c-2.5667725-11.1494675-12.078186-19.0350189-23.4859619-19.526062c-0.8782959-0.0378036-1.758728-0.0338974-2.6382446-0.0338974
		c-171.3070374-0.0013428-342.6140442,0.0062256-513.9210815-0.0319748
		c-6.1258469-0.0013657-11.7500381,1.2992096-16.636261,5.0615005
		c-6.7019653,5.1603394-10.1127167,12.0078812-10.1129532,20.4996414
		c-0.0024643,92.3167953-0.0015106,184.6335754-0.0015411,276.9503784c0,1.0988159,0,2.1976624,0,3.4260864
		c-22.2308388,0-44.1862869,0-66.301796,0C0,248.1699371,0,124.1432419,0,0z"/>
	<path d="M367.8875427,491.2844238c8.5480042,0,16.9302979,0,25.616394,0
		c0.0403137-1.0544739,0.1058655-1.9747314,0.1061401-2.8950806c0.0059509-19.2793884,0.0162964-38.5587158-0.015686-57.8380737
		c-0.0028381-1.7150879,0.2952576-3.2908936,0.9511414-4.875946c2.9335938-7.0894775,5.7956848-14.2085571,8.6911011-21.3138428
		c0.2981873-0.7316589,0.6464539-1.4428711,0.9445801-2.1040039c17.5600586,0,34.9639587,0,52.5273132,0
		c0.0462036,0.9039917,0.1206665,1.6817932,0.1207886,2.4596252c0.0056152,34.2388611,0.018158,68.4777222-0.0106201,102.7166138
		c-0.0040894,4.8886719-0.5231628,9.7366333-1.8191223,14.4766235
		c-3.1917725,11.6732788-10.6748352,19.0217285-22.3296814,22.1414185
		c-4.348053,1.1638184-8.7892456,1.6520996-13.2883606,1.6519165c-44.8661804-0.0021362-89.7324219-0.0023804-134.5986023,0.0012817
		c-3.9335938,0.0003052-7.8262329-0.3787231-11.6526184-1.291626c-12.907074-3.0793457-20.6055145-11.2626953-23.4975891-24.1099243
		c-0.9876251-4.387207-1.3769226-8.8429871-1.3770142-13.3346252
		c-0.0013123-89.9970703-0.0009918-179.9941406-0.0009918-269.9912109c0-25.4391785-0.009903-50.8783569,0.0084076-76.3175201
		c0.0036621-5.0535126,0.5084534-10.059845,1.8303375-14.9570923c3.3161469-12.2855682,11.2268829-19.7538757,23.6126251-22.5478745
		c4.2382202-0.9560471,8.5430298-1.2721252,12.8616028-1.2757339c33.8296204-0.0282211,67.6592407-0.0157013,101.4888611-0.0157623
		c0.7825623,0,1.5651245,0,2.6410522,0c-6.7290344,59.6672821-13.4257812,119.0483704-20.1560669,178.7271118
		c15.0681152,0,29.9052429,0,45.0916748,0c-22.808075,80.0767517-45.5172424,159.8063049-68.2263794,239.5358276
		c0.1702271,0.062439,0.3404236,0.124939,0.5106506,0.1873779
		C354.540802,524.0526123,361.1641235,507.7913818,367.8875427,491.2844238z M312.0034485,341.5335388
		c-0.5559692,2.4793091-0.4586487,147.8867798,0.0742493,149.5993347c12.6791687,0,25.3583374,0,38.0135803,0
		c0.5776367-3.7233887,12.9371948-147.5178528,12.3935852-149.5993347
		C345.6599426,341.5335388,328.8183594,341.5335388,312.0034485,341.5335388z M370.7426147,176.5737305
		c-19.9333496,0-39.39505,0-58.8299866,0c-0.4873657,3.3283234-0.3464966,159.1984558,0.2113953,161.1365967
		C331.699585,283.8991089,351.1834717,230.3398285,370.7426147,176.5737305z"/>
	<path d="M700.0646973,564.8518677c0,34.3045654,0,68.4937134,0,102.8233032c-233.3856812,0-466.6282349,0-700.0476685,0
		c0-33.6983032,0-67.3111572,0-101.1898193c0.8410216,0.4121094,1.4705338,0.6942749,2.0758243,1.0212402
		c9.4505405,5.1055908,19.6037655,7.8533936,30.2741508,8.2546997c10.2227821,0.3843994,20.466671,0.2080078,30.7012749,0.2764893
		c0.9501572,0.0062866,1.9004059,0.0007935,2.9895248,0.0007935c0.2322617,1.6305542,0.3971558,3.1100464,0.6585464,4.5723267
		c2.0911484,11.6986084,12.1145935,20.3305054,24.0002975,20.6837769c0.8790131,0.0261841,1.7590561,0.0239258,2.6386337,0.0239258
		c171.1423035,0.0009766,342.2846375-0.0027466,513.427002,0.0217896c4.3825684,0.0006104,8.6269531-0.4699097,12.5751343-2.4663086
		c8.3289795-4.2115479,13.1444702-10.9290771,14.260376-20.2401123c0.0759888-0.6347046,0.1430664-1.270752,0.2387695-1.9024658
		c0.0218506-0.1448364,0.1447754-0.2744751,0.3787842-0.6929321c0.776062,0,1.7125244,0.0050659,2.6488647-0.0007935
		c8.8752441-0.055542,17.7592773,0.1146851,26.6236572-0.2241821c12.5861816-0.4814453,24.4466553-3.7142944,35.2089844-10.4822998
		c0.2680054-0.1685791,0.5603027-0.2997437,0.8466187-0.4373169
		C699.6276245,564.8630981,699.7141113,564.8786621,700.0646973,564.8518677z"/>
	<path d="M0.6930398,402.8116455c20.9729462,0,41.8103943,0,62.9253616,0
		c0.3024635,5.9140015,0.0945854,11.7998657,0.1331177,17.6787109c0.0382805,5.839386,0.0083733,11.6792603,0.0083733,17.5189209
		c0,5.9196472,0,11.8392639,0,17.7589417c0,5.8396301,0,11.6793213,0,17.5189514c0,5.9002686,0,11.8004761,0,17.8449097
		c23.6490059,0,47.0375633,0,70.6607513,0c0-122.9766235,0-245.8900146,0-368.553009
		c0.2874146-0.3069153,0.3378754-0.3663101,0.3942261-0.4194412c0.058075-0.0548019,0.1148224-0.1327744,0.1844482-0.1495667
		c0.2312775-0.0558395,0.4680634-0.1250916,0.7027588-0.1251831c20.3130798-0.0075684,40.6261749-0.009697,60.93927-0.0057144
		c0.3079071,0.000061,0.615799,0.080864,1.0733795,0.1449509c0.0747375,0.6499786,0.1652985,1.2560577,0.2078247,1.865509
		c0.0333252,0.4776535,0.0075226,0.9594727,0.0075226,1.4394379c0.0000305,127.2722778-0.0011902,254.5445557,0.0049286,381.8168335
		c0.0002289,4.5741882-0.3599548,9.0971985-1.4460144,13.5570374
		c-3.2361908,13.2884521-11.7318878,21.1227417-24.9744263,23.8120728
		c-3.7336731,0.7583008-7.6099396,1.1312256-11.4218445,1.1386108c-40.7862167,0.0791016-81.57267,0.0466309-122.3590393,0.0526123
		c-4.6619873,0.0006714-9.2622147-0.4906006-13.7523403-1.757019c-11.9820995-3.3795776-19.1358604-11.340271-21.9646416-23.3433838
		c-1.0131156-4.2988281-1.4502587-8.6699829-1.4507713-13.0832825c-0.0039687-34.1579895-0.0036612-68.315918,0.0016767-102.473877
		C0.5676982,404.3480835,0.6442519,403.6474915,0.6930398,402.8116455z"/>
	<path d="M633.5084839,122.0044937c21.2763672,0,42.1912231,0,63.3803101,0c0,1.2322388,0,2.3297577,0,3.427269
		c0,113.0338135,0,226.067627,0,339.1014404c0,14.3191833-0.0084839,28.6384583,0.0050659,42.9576416
		c0.0040894,4.3356628-0.4053345,8.6172485-1.3936157,12.8447876
		c-3.1585083,13.5105591-11.6937256,21.5006104-25.1593628,24.1959229
		c-3.7364502,0.7478638-7.6115112,1.1151733-11.4240112,1.1224976c-40.7064209,0.078064-81.4130249,0.0455933-122.1196899,0.0530396
		c-4.5799561,0.0008545-9.1019287-0.456604-13.5255127-1.6594238c-11.8934937-3.2340088-19.1956787-10.9545288-22.1801453-22.847229
		c-1.1153564-4.4445801-1.5514832-8.96875-1.550354-13.5470886c0.0079041-34.1581726,0.0042114-68.3162842,0.0040283-102.4744263
		c0-0.712738-0.000061-1.4254456-0.000061-2.0890808c1.9439087-0.5408936,60.6028137-0.6036987,63.0882263-0.0602417
		c0,29.2693176,0,58.5942993,0,88.0840759c23.6411133,0,47.0349121,0,70.7495117,0
		c0.2736206-6.3737183,0.083374-12.8122253,0.117981-19.2445374c0.03479-6.4794922,0.0076904-12.9592285,0.0076904-19.4389038
		c0-6.4796448,0-12.9592896,0-19.4389038c0-6.4796448,0-12.959259,0-19.4389038c0-6.4796753,0-12.9593201,0-19.4389648
		s0-12.9592896,0-19.4389343s0-12.9592896,0-19.4389648c0-6.4796448,0-12.959259,0-19.4389038s0-12.9592896,0-19.4389343
		c0-6.399231,0-12.7984314,0-19.1976624c0-6.4796448,0-12.9592896,0-19.4389343s0-12.9592896,0-19.4389343
		s0-12.9593048,0-19.4389496s0-12.959259,0-19.4389191c0-6.4796448,0-12.9592896,0-19.4389496
		c0-6.4796448,0-12.9592743,0-19.4389191c0-6.47966,0-12.9593048,0-19.4389496s0-12.9592896,0-19.4389343
		C633.5085449,135.1763611,633.5084839,128.7041473,633.5084839,122.0044937z"/>
	<path d="M526.625,778.223877c0.4157104,0.1936035,0.8129272,0.4633179,1.249939,0.569519
		c9.8565063,2.3950806,14.9428711,9.0048828,16.3204956,18.7252197c0.4693604,3.3114014,0.638855,6.6890259,0.6502686,10.0374146
		c0.0611572,17.9171143,0.0290527,35.8346558,0.0291748,53.7520142c0,0.8556519,0,1.7113037,0,2.6778564
		c-7.7785645,0-15.2487183,0-23.032959,0c0-1.076416-0.000061-2.0108032-0.000061-2.9451904
		c-0.000061-18.557312,0.0187988-37.1146851-0.0239258-55.671875c-0.0053101-2.3067627-0.1357422-4.6501465-0.5562134-6.9118652
		c-1.1392212-6.1286011-4.3803711-8.9644775-10.6000671-9.5214844c-1.3516235-0.1210938-2.7149048-0.1491699-4.0730286-0.152832
		c-5.8375549-0.0158691-11.6751099-0.0067749-17.5126648-0.0067749c-0.8615112,0-1.7229919,0-2.8264771,0
		c0,25.1600952,0,50.0795898,0,75.178894c-7.7141724,0-15.1871033,0-22.6550903,0
		c-0.5048218-1.7553101-0.7305908-167.7561646-0.2221375-172.8197021c0.5607605-0.0678101,1.1636353-0.2039795,1.7666931-0.2044067
		c16.1531982-0.010498,32.306427-0.0230713,48.4596252,0.0041504c4.7485962,0.0080566,9.3883057,0.7502441,13.8702393,2.3839111
		c5.1674194,1.8834839,9.1115723,5.1981201,11.8552856,9.96875c3.1420898,5.4633789,4.7005615,11.4307251,4.8328857,17.6365967
		c0.2301636,10.7921753,0.1586304,21.593689,0.0300903,32.3891602c-0.0487671,4.0916138-1.0056152,8.0844727-2.7421265,11.8387451
		c-2.6489868,5.7269897-6.8759766,9.7340088-12.8806763,11.8023071c-0.6513672,0.2243652-1.2827148,0.5071411-1.9233398,0.7628174
		C526.6356201,777.8860474,526.6303101,778.0549316,526.625,778.223877z M486.3213501,712.0797729
		c0,19.138916,0,37.9660034,0,56.9293213c0.6593323,0.0571899,1.1976013,0.1437988,1.7360535,0.1446533
		c6.2353516,0.0090332,12.4707947,0.0248413,18.7059021-0.0126953c1.1915283-0.0072021,2.3968201-0.1581421,3.5697937-0.3803101
		c5.4491882-1.0323486,9.1853943-4.0412598,10.3885803-9.5982666c0.5374146-2.4822388,0.8562622-5.0562134,0.8933105-7.5941162
		c0.1132202-7.7546387,0.0693359-15.5122681,0.0202637-23.2682495c-0.0111084-1.7507324-0.1821289-3.5177002-0.4668579-5.2463379
		c-1.017334-6.1747437-4.2670898-9.4786987-10.4055176-10.6060181c-1.3270874-0.2437744-2.696167-0.3270264-4.0483093-0.3513184
		c-2.8769226-0.0517578-5.7553711-0.0165405-8.6332397-0.0166626
		C494.2493591,712.0795898,490.4173279,712.0797729,486.3213501,712.0797729z"/>
	<path d="M456.8341675,259.914917c-20.6779785,0-41.0314331,0-61.6746216,0c0-45.9872589,0-91.8513794,0-137.8273926
		c0.2883606-0.0594406,0.6665649-0.2081528,1.043396-0.2046814c9.1906433,0.084404,18.3834229,0.0927963,27.5706787,0.3222275
		c4.4926147,0.1121902,8.8595276,1.168045,13.0571899,2.8259888c10.4234924,4.1169434,16.3028259,12.0414734,18.5579529,22.7368317
		c0.8682251,4.1176758,1.3698425,8.392395,1.3842468,12.5978241c0.1109314,32.3864136,0.0611572,64.773407,0.0611572,97.1602173
		C456.8341675,258.2349243,456.8341675,258.9439087,456.8341675,259.914917z"/>
	<path d="M342.6298828,752.8314819c-7.4273071,0-14.5921021,0-21.9121704,0
		c-0.0449829-0.8935547-0.1167297-1.6708984-0.1180115-2.4483643c-0.0097351-5.8394165,0.0788879-11.680481-0.043396-17.517395
		c-0.0566101-2.7025146-0.2821655-5.4455566-0.8340454-8.0859985c-2.1209717-10.1465454-9.1631165-14.1707153-19.0002136-13.434021
		c-2.8131714,0.2106934-5.5192261,0.9092407-7.9282837,2.4815674c-3.8783264,2.5314331-5.7988892,6.329834-6.6342468,10.7012329
		c-0.4473267,2.3408203-0.6683655,4.7606201-0.6716919,7.1452026c-0.0430908,30.7966309-0.026886,61.5933838-0.0307617,92.3901367
		c-0.0004272,3.4627075,0.3729248,6.8624878,1.5838623,10.1330566c2.0542603,5.5482178,6.0254517,8.7879639,11.8839722,9.4362183
		c2.593689,0.2871094,5.2788696,0.30896,7.8652344-0.0113525c6.2122192-0.7692871,10.368866-4.2669678,12.375946-10.2211304
		c1.1365662-3.371521,1.4277039-6.8740234,1.4278259-10.4091187c0.0003052-8.8790894,0.0003357-17.7581177,0.0004883-26.637207
		c0-0.8751221-0.0000305-1.7501221-0.0000305-2.5792236c1.7679749-0.5489502,18.3164368-0.706543,21.9859314-0.2253418
		c0.0528259,0.6450195,0.1574707,1.3330688,0.1582336,2.0213013c0.0106506,9.5189209,0.0267029,19.0380249-0.0004883,28.5569458
		c-0.0167542,5.8674316-0.745575,11.6487427-2.4739685,17.2692261
		c-3.7525024,12.2025757-11.8796082,19.8430786-24.2593079,22.8236084
		c-8.8484802,2.1303101-17.7746277,2.0831299-26.6175232-0.0391235
		c-11.7851257-2.8283081-19.7178345-10.0978394-23.9485168-21.4286499
		c-2.3212891-6.21698-3.2732544-12.6992798-3.2843323-19.2894897c-0.0518799-30.8765869-0.0504761-61.753418,0.0005493-92.6300049
		c0.0100708-6.0974731,0.8230896-12.1141357,2.7309265-17.9483032
		c3.7866211-11.5794678,11.5802307-18.9390869,23.3586121-21.9244995c9.5572815-2.4226074,19.2044067-2.387085,28.7024841,0.2142944
		c13.3941956,3.6685791,21.3093262,12.7166748,24.2289429,26.1223145c0.8959351,4.1136475,1.3500671,8.3771973,1.4927673,12.5894165
		c0.2409363,7.111145,0.0740356,14.2362061,0.0712891,21.3553467
		C342.7398071,751.7081299,342.6772461,752.1741333,342.6298828,752.8314819z"/>
	<path d="M674.7371826,793.3994141c7.5117798,0,14.6116333,0,21.911377,0
		c0.0823364,0.6273193,0.2285767,1.2260742,0.2293091,1.8249512c0.0112915,9.8389893,0.0432129,19.6781616-0.0142212,29.5167236
		c-0.0319824,5.4587402-0.7626953,10.8364258-2.303894,16.0912476
		c-3.7365723,12.7404785-12.0985718,20.5838623-25.0140381,23.5169678
		c-8.7165527,1.9795532-17.4772339,1.9157104-26.147644-0.2021484
		c-12.8909912-3.1488647-20.8704224-11.5002441-24.7072144-24.0177002
		c-1.6757812-5.4667969-2.3966675-11.0992432-2.4024048-16.7998657
		c-0.0309448-30.7167969-0.0299683-61.4336548-0.0014038-92.1503906c0.0054321-5.8602295,0.7075806-11.654541,2.4055786-17.2827148
		c3.6483765-12.0927124,11.5210571-19.901123,23.8212891-22.9694214c9.5638428-2.3856812,19.2041016-2.3306885,28.7017212,0.286499
		c12.4737549,3.4371948,20.2595825,11.6824341,23.6602173,24.1096802c1.3143921,4.8034668,1.9631348,9.7163086,1.9916992,14.6952515
		c0.0407104,7.1189575,0.0167236,14.2383423,0.0148926,21.3575439c-0.0001221,0.3947754-0.052002,0.7894897-0.1018066,1.4976196
		c-7.2421265,0.1813965-14.4654541,0.0409546-22.043457,0.093689c0-1.0291138,0-1.8735962,0-2.7182007
		c-0.0001221-5.6793823,0.085144-11.3605957-0.0369263-17.0374146c-0.0598755-2.7831421-0.2620239-5.6077881-0.8184814-8.3278809
		c-2.1096802-10.3125-9.2283325-14.2121582-18.9146118-13.5544434c-1.0330811,0.0701294-2.0703125,0.236084-3.0801392,0.4685059
		c-5.0419312,1.1604614-8.5540161,4.1446533-10.4832153,8.9554443c-1.3290405,3.3140869-1.7976685,6.7872925-1.7981567,10.3329468
		c-0.0042725,31.1967163-0.0053711,62.3933716,0.0014038,93.5900879c0.0007324,3.6299438,0.5319214,7.1668701,1.9923706,10.5280151
		c1.8439941,4.2436523,4.9633179,6.972168,9.4782715,8.0789185c3.958374,0.9702759,7.911438,0.9857178,11.8623657-0.0281982
		c4.8431396-1.2427979,8.1521606-4.2189331,9.9887085-8.857605c1.4384155-3.6333618,1.7949219-7.4425659,1.802124-11.2993164
		c0.0167847-8.9590454,0.0059814-17.9181519,0.0062866-26.8771973
		C674.7372437,795.3581543,674.7371826,794.4953003,674.7371826,793.3994141z"/>
	<path d="M0.7412492,691.0218506c20.8333321,0,41.5189095,0,62.3716545,0c0,6.9920654,0,13.8966064,0,21.0136719
		c-13.1443901,0-26.1468697,0-39.0904198,0c-0.5149555,1.9069824-0.6548176,47.0259399-0.1785526,50.434021
		c11.8384037,0,23.7149143,0,35.5209656,0c0.5820999,2.0489502,0.6369591,19.2059326,0.0835152,21.6467285
		c-11.8240051,0-23.7031326,0-35.7168579,0c0,19.6253052,0,39.0189819,0,58.74646
		c4.6666775,0.1161499,9.2705479,0.0383301,13.8711948,0.0526733c4.5576477,0.0142822,9.1153717,0.0031738,13.6730652,0.0031738
		c4.6160698,0,9.232151-0.000061,13.9123611-0.000061c0,7.1824951,0,14.0325928,0,21.0498047
		c-21.4979324,0-42.8827744,0-64.4469299,0C0.7412492,806.3737793,0.7412492,748.8376465,0.7412492,691.0218506z"/>
	<path d="M175.7444916,691.0447998c20.8231812,0,41.4925232,0,62.2960815,0c0,6.9694824,0,13.8162842,0,21.0117188
		c-3.2501678,0.0077515-6.4958801,0.0186157-9.7415466,0.0224609c-3.2783813,0.0038452-6.5568085,0.0007935-9.8351898,0.0007935
		c-3.2783966,0-6.5568085,0-9.8351898,0c-3.2554626,0-6.51091,0-9.8924561,0c0,16.8842773,0,33.4916992,0,50.4343262
		c2.9215851,0.0941772,5.8505707,0.0324097,8.7755737,0.0430908c3.0384827,0.0110474,6.0770264,0.0023804,9.1155396,0.0023804
		c2.9585571,0,5.9171143,0,8.8756561,0c2.9511261,0,5.9022675,0,8.8066254,0
		c0.5726013,1.8148804,0.7693329,16.1946411,0.2999268,21.4633179c-2.9457245,0.1159058-5.949234,0.0410767-8.9476776,0.0541382
		c-2.9584961,0.0128784-5.9171143,0.0027466-8.8756714,0.0027466c-3.0384979,0-6.0770416,0-9.1155548,0
		c-2.9347687,0-5.8695374,0-8.9338379,0c0,19.6721191,0,39.067749,0,58.7908936
		c6.9160614,0.0987549,13.7573547,0.0338135,20.5969086,0.0454102c6.865799,0.0116577,13.7316437,0.0024414,20.5345001,0.0024414
		c0.5823975,1.838501,0.7090149,18.0806885,0.1914825,21.0406494c-21.3487396,0-42.7290955,0-64.0977325,0
		C175.471283,862.1534424,175.2502289,696.0678711,175.7444916,691.0447998z"/>
	<path d="M411.6643982,863.9844971c-7.9481506,0-15.5049133,0-23.2533569,0c0-50.5957642,0-101.0408325,0-151.8040161
		c-2.5236816-0.1983643-4.8936157-0.0735474-7.2528076-0.0956421c-2.3987732-0.0224609-4.7979736-0.0050659-7.1969604-0.0050659
		c-2.3190308,0-4.638092,0-6.9571228,0c-2.3901367,0-4.7802429,0-7.1228638,0
		c-0.5516663-1.8030396-0.7124939-17.2525635-0.2407227-20.9990845c27.0349426,0,54.090332,0,81.2922363,0
		c0,6.921936,0,13.7650146,0,20.9475098c-3.1625671,0.0172119-6.3259277,0.0413208-9.4893188,0.0496826
		c-3.2786255,0.008606-6.5572205,0.0018921-9.8358765,0.0018921c-3.1865845,0-6.3731384,0-9.824646,0
		c-0.2511902,6.4446411-0.0805969,12.7285156-0.1116638,19.0073853c-0.0312805,6.3189087-0.006897,12.6381836-0.006897,18.9572754
		s0,12.6381836,0,18.9573364c0,6.3190918,0,12.6382446,0,18.9573364s0,12.6381836,0,18.9573364
		c0,6.3190918,0,12.6382446,0,18.9573364s0,12.6381836,0,18.9572754
		C411.6643982,851.1357422,411.6643982,857.4404907,411.6643982,863.9844971z"/>
	<path d="M110.6461945,842.6676025c14.4695053,0,28.446167,0,42.7743378,0
		c0.1598816,7.1321411,0.0328827,14.1097412,0.0758057,21.0233154c-1.9850922,0.5466919-63.558815,0.6351318-66.1677322,0.1296387
		c0-57.5195923,0-115.0688477,0-172.7590332c7.7345657,0,15.3758011,0,23.3175888,0
		C110.6461945,741.5228271,110.6461945,791.9447021,110.6461945,842.6676025z"/>
	<path d="M591.633606,863.9789429c-7.8250122,0-15.4596558,0-23.2119141,0c0-57.7005615,0-115.2441406,0-172.9229736
		c7.7718506,0,15.4095459,0,23.2119141,0C591.633606,748.6645508,591.633606,806.2139893,591.633606,863.9789429z"/>
</g>
</svg>
